<svg width="203" height="46" viewBox="0 0 203 46" fill="none" xmlns="http://www.w3.org/2000/svg">
<path d="M82 10C82 4.47715 86.4772 0 92 0H183C194.046 0 203 8.95431 203 20V26C203 37.0457 194.046 46 183 46H92C86.4772 46 82 41.5228 82 36V10Z" fill="#7A129F"/>
<path d="M5.512 20.17V32H1.924V13.54H4.706L14.326 25.656V13.566H17.914V32H15.002L5.512 20.17ZM34.5721 28.854V32H21.7541V13.54H34.3381V16.686H25.3421V21.132H33.1161V24.044H25.3421V28.854H34.5721ZM43.7393 13.592H47.0413L49.1213 19.702L51.2013 13.592H54.5293L51.3833 21.99L53.7233 27.892L58.9493 13.54H62.8493L55.3353 32H52.3193L49.1213 24.252L45.9233 32H42.9073L35.4453 13.54H39.2933L44.5453 27.892L46.8333 21.99L43.7393 13.592ZM75.3068 18.376C75.1854 18.2547 74.9601 18.09 74.6308 17.882C74.3188 17.674 73.9288 17.4747 73.4608 17.284C73.0101 17.076 72.5161 16.9027 71.9788 16.764C71.4414 16.6253 70.8954 16.556 70.3408 16.556C69.3528 16.556 68.6161 16.738 68.1308 17.102C67.6454 17.466 67.4028 17.9773 67.4028 18.636C67.4028 19.0173 67.4894 19.338 67.6628 19.598C67.8534 19.8407 68.1221 20.0573 68.4688 20.248C68.8154 20.4387 69.2488 20.612 69.7688 20.768C70.3061 20.924 70.9214 21.0887 71.6148 21.262C72.5161 21.5047 73.3308 21.7647 74.0588 22.042C74.8041 22.3193 75.4281 22.666 75.9308 23.082C76.4508 23.498 76.8494 24.0007 77.1268 24.59C77.4041 25.162 77.5428 25.8727 77.5428 26.722C77.5428 27.71 77.3521 28.5593 76.9708 29.27C76.6068 29.9633 76.1041 30.5267 75.4628 30.96C74.8388 31.3933 74.1108 31.714 73.2788 31.922C72.4641 32.1127 71.6061 32.208 70.7048 32.208C69.3181 32.208 67.9488 32 66.5968 31.584C65.2448 31.168 64.0314 30.5787 62.9568 29.816L64.5428 26.722C64.6988 26.878 64.9761 27.086 65.3748 27.346C65.7908 27.5887 66.2761 27.84 66.8308 28.1C67.3854 28.3427 68.0008 28.5507 68.6768 28.724C69.3528 28.8973 70.0461 28.984 70.7568 28.984C72.7328 28.984 73.7208 28.3513 73.7208 27.086C73.7208 26.6873 73.6081 26.3493 73.3828 26.072C73.1574 25.7947 72.8368 25.552 72.4208 25.344C72.0048 25.136 71.5021 24.9453 70.9128 24.772C70.3234 24.5987 69.6648 24.408 68.9368 24.2C68.0528 23.9573 67.2814 23.6973 66.6228 23.42C65.9814 23.1253 65.4441 22.7873 65.0108 22.406C64.5774 22.0073 64.2481 21.5567 64.0228 21.054C63.8148 20.534 63.7108 19.9187 63.7108 19.208C63.7108 18.272 63.8841 17.44 64.2308 16.712C64.5774 15.984 65.0541 15.3773 65.6608 14.892C66.2848 14.4067 67.0041 14.0427 67.8188 13.8C68.6334 13.54 69.5088 13.41 70.4448 13.41C71.7448 13.41 72.9408 13.618 74.0328 14.034C75.1248 14.4327 76.0781 14.9093 76.8928 15.464L75.3068 18.376Z" fill="black"/>
<path d="M131.914 13.54V32H126.844V24.772H120.656V32H115.586V13.54H120.656V20.352H126.844V13.54H131.914ZM143.146 27.658C143.735 27.658 144.238 27.528 144.654 27.268C145.07 27.008 145.408 26.67 145.668 26.254C145.928 25.8207 146.119 25.3267 146.24 24.772C146.361 24.2173 146.422 23.6367 146.422 23.03V13.54H151.492V23.03C151.492 24.3127 151.327 25.5173 150.998 26.644C150.669 27.7533 150.157 28.7153 149.464 29.53C148.771 30.3447 147.895 30.986 146.838 31.454C145.798 31.922 144.567 32.156 143.146 32.156C141.673 32.156 140.407 31.9133 139.35 31.428C138.31 30.9253 137.452 30.258 136.776 29.426C136.1 28.594 135.606 27.632 135.294 26.54C134.982 25.4307 134.826 24.2607 134.826 23.03V13.54H139.896V23.03C139.896 23.6367 139.957 24.226 140.078 24.798C140.199 25.3527 140.39 25.8467 140.65 26.28C140.91 26.696 141.239 27.034 141.638 27.294C142.054 27.5367 142.557 27.658 143.146 27.658ZM170.112 27.268C170.112 28.1 169.939 28.8193 169.592 29.426C169.246 30.0153 168.769 30.5007 168.162 30.882C167.556 31.2633 166.845 31.5493 166.03 31.74C165.233 31.9133 164.384 32 163.482 32H154.408V13.54H165.12C165.762 13.54 166.342 13.6787 166.862 13.956C167.382 14.2333 167.824 14.5973 168.188 15.048C168.552 15.4813 168.83 15.984 169.02 16.556C169.228 17.1107 169.332 17.6827 169.332 18.272C169.332 19.1387 169.107 19.9707 168.656 20.768C168.223 21.548 167.564 22.1373 166.68 22.536C167.738 22.848 168.57 23.394 169.176 24.174C169.8 24.9367 170.112 25.968 170.112 27.268ZM164.964 26.228C164.964 25.7773 164.843 25.4047 164.6 25.11C164.358 24.798 164.046 24.642 163.664 24.642H159.478V27.736H163.482C163.898 27.736 164.245 27.606 164.522 27.346C164.817 27.086 164.964 26.7133 164.964 26.228ZM159.478 17.856V20.69H162.936C163.283 20.69 163.595 20.5947 163.872 20.404C164.167 20.2133 164.314 19.832 164.314 19.26C164.314 18.7573 164.193 18.402 163.95 18.194C163.708 17.9687 163.422 17.856 163.092 17.856H159.478Z" fill="white"/>
</svg>
